<svg width="14" height="14" viewBox="0 0 14 14" fill="none" xmlns="http://www.w3.org/2000/svg">
<g clip-path="url(#clip0_1236_16354)">
<path d="M5.81997 11L7.99997 13.17C8.13373 13.3071 8.30096 13.4069 8.48512 13.4595C8.66928 13.5121 8.86399 13.5158 9.04997 13.47C9.23712 13.4265 9.40993 13.3356 9.55179 13.206C9.69364 13.0764 9.79977 12.9125 9.85997 12.73L13.44 2.00002C13.5147 1.79897 13.5301 1.5807 13.4844 1.37114C13.4387 1.16159 13.3337 0.969571 13.1821 0.817909C13.0304 0.666247 12.8384 0.561322 12.6288 0.515606C12.4193 0.46989 12.201 0.485305 12 0.56002L1.26997 4.14002C1.08122 4.20449 0.913116 4.3182 0.783022 4.46939C0.652928 4.62058 0.565569 4.80377 0.529974 5.00002C0.493233 5.17851 0.501412 5.36333 0.553776 5.53788C0.60614 5.71243 0.701049 5.87123 0.829974 6.00002L3.56997 8.74002L3.47997 12.21L5.81997 11Z" stroke="#000001" stroke-linecap="round" stroke-linejoin="round"/>
<path d="M13.1199 0.780029L3.56995 8.74003" stroke="#000001" stroke-linecap="round" stroke-linejoin="round"/>
</g>
<defs>
<clipPath id="clip0_1236_16354">
<rect width="14" height="14" fill="white"/>
</clipPath>
</defs>
</svg>
